<svg width="15" height="17" viewBox="0 0 15 17" fill="none" xmlns="http://www.w3.org/2000/svg">
<rect x="0.5" y="0.5" width="14" height="16" stroke="white"/>
<rect x="2" y="2" width="11" height="2" fill="white"/>
<rect x="2" y="5" width="2" height="2" fill="white"/>
<rect x="5" y="5" width="2" height="2" fill="white"/>
<rect x="8" y="5" width="2" height="2" fill="white"/>
<rect x="11" y="5" width="2" height="2" fill="white"/>
<rect x="2" y="8" width="2" height="2" fill="white"/>
<rect x="5" y="8" width="2" height="2" fill="white"/>
<rect x="8" y="8" width="2" height="2" fill="white"/>
<rect x="11" y="8" width="2" height="2" fill="white"/>
<rect x="2" y="11" width="2" height="2" fill="white"/>
<rect x="5" y="11" width="2" height="2" fill="white"/>
<rect x="8" y="11" width="2" height="2" fill="white"/>
<rect x="11" y="11" width="2" height="2" fill="white"/>
<rect x="2" y="14" width="2" height="1" fill="white"/>
<rect x="5" y="14" width="2" height="1" fill="white"/>
<rect x="8" y="14" width="2" height="1" fill="white"/>
<rect x="11" y="14" width="2" height="1" fill="white"/>
</svg>
